<svg preserveAspectRatio="none" overflow="visible" style="display: block;" width="96" height="96" viewBox="0 0 96 96" fill="none" xmlns="http://www.w3.org/2000/svg">
<g id="Image [w-20]">
<path id="Vector" d="M6.00381 39.8338C5.13729 40.1667 4.30193 40.5869 3.50884 41.089C3.25964 41.222 3.04373 41.4174 2.8793 41.6589C2.71487 41.9004 2.6067 42.1808 2.5639 42.4766C2.52413 43.0177 2.78897 43.5591 3.34867 44.0852C3.81419 44.4945 4.31588 44.8536 4.84654 45.1575C5.25356 45.4078 5.66807 45.6444 6.08259 45.8806C6.67603 46.2189 7.28973 46.567 7.86144 46.9535C15.6142 52.175 22.6692 56.8047 30.4066 60.5454C30.3901 60.8433 30.3716 61.1405 30.3529 61.4365C30.3004 62.273 30.2464 63.1374 30.2452 63.9909C30.2435 65.2794 30.2388 66.569 30.231 67.8598C30.2111 71.9514 30.1905 76.1818 30.3184 80.3424C30.3645 81.8426 30.865 82.9152 31.7274 83.3626C32.634 83.831 33.7996 83.5584 35.0093 82.5894C35.4456 82.2406 35.8928 81.8477 36.3759 81.3894C38.4954 79.3786 40.6119 77.3632 42.7487 75.3286L44.6851 73.4848C44.6997 73.4963 44.7139 73.5085 44.7271 73.5206L46.5176 75.1782C48.556 77.0643 50.6635 79.0138 52.7206 80.9517C53.3066 81.5021 53.8959 82.0499 54.4886 82.5946C56.2952 84.2643 58.1649 85.991 59.844 87.8406C60.7338 88.8198 61.5988 89.28 62.6383 89.28C63.0865 89.273 63.5318 89.2019 63.9628 89.0688C65.4797 88.6246 66.4582 87.6275 67.136 85.8387C69.6909 79.1002 72.3059 72.2554 74.8339 65.6358C76.9094 60.199 78.9837 54.7614 81.056 49.323C85.52 37.6483 89.3715 25.713 92.592 13.5733C92.9818 12.1652 93.2563 10.7228 93.4112 9.26298C93.4637 8.92467 93.4438 8.57824 93.3549 8.24909C93.2659 7.91994 93.1091 7.61651 92.8966 7.36134C92.64 7.11238 92.3354 6.92832 92.0038 6.82266C91.673 6.71706 91.3242 6.69254 90.983 6.75091C90.5318 6.80922 90.0864 6.91738 89.655 7.07379L89.5974 7.09286C88.6285 7.40371 87.6576 7.70566 86.6861 8.00806C84.4301 8.71014 82.0966 9.43616 79.8323 10.2638C63.4804 16.2456 46.8964 22.758 30.5409 29.6199C25.8236 31.5983 21.0205 33.5936 16.3753 35.5222C12.9162 36.9564 9.45901 38.3935 6.00381 39.8338ZM37.1318 58.2747C38.0321 57.4653 38.8856 56.7002 39.7615 55.9811C43.1955 53.159 46.6327 50.3412 50.073 47.5288C56.8328 41.995 63.8233 36.2728 70.6605 30.5905C72.7507 28.8544 74.7354 26.9027 76.6541 25.0189C77.3133 24.3729 77.9718 23.7241 78.6349 23.0842C79.1648 22.5738 80.0506 21.7199 79.5597 20.0516C79.5437 19.9972 79.5168 19.9468 79.4822 19.9038C79.447 19.8608 79.4048 19.8261 79.3568 19.8018C79.3088 19.7777 79.2563 19.7644 79.2032 19.7627C79.1501 19.761 79.0976 19.771 79.0483 19.792C78.8429 19.8813 78.6451 19.96 78.4538 20.0343C78.0563 20.1806 77.6691 20.3574 77.2954 20.5636C64.6067 27.9791 53.5695 37.7032 42.8961 47.1077C40.4821 49.2342 38.207 51.4277 35.8005 53.7476C34.7787 54.7331 33.7465 55.7227 32.7039 56.7167L8.89715 42.836C9.03437 42.7449 9.17843 42.6663 9.32781 42.601C13.1566 41.0493 16.9839 39.492 20.8097 37.9289C30.1777 34.1095 39.8661 30.1597 49.4346 26.4025C57.9559 23.0563 66.6758 19.8147 75.1091 16.6796C77.913 15.6374 80.7168 14.5932 83.5194 13.5469C84.6054 13.1408 85.7018 12.823 86.8621 12.4872C87.1699 12.3983 87.4784 12.3084 87.7888 12.2171C83.1162 28.1548 77.1558 43.7872 71.3888 58.9135C68.3584 66.8614 65.2269 75.0746 62.2991 83.2826C54.3408 76.3859 46.6214 69.0957 39.1538 62.042C38.1452 61.0884 37.1345 60.1344 36.1216 59.18C36.466 58.8711 36.8017 58.5699 37.1307 58.2747H37.1318ZM41.555 70.432L34.7277 76.6586L34.1864 63.1063L41.555 70.432Z" fill="#F5F9F5"/>
</g>
</svg>
