<svg preserveAspectRatio="none" overflow="visible" style="display: block;" width="96" height="95.36" viewBox="0 0 96 95.36" fill="none" xmlns="http://www.w3.org/2000/svg">
<g id="Image [w-20]">
<path id="Vector" d="M64.5972 58.8271C67.4766 62.2417 68.9839 65.9732 68.9216 70.2651C68.8358 76.1787 65.8007 80.6307 61.5349 84.2855C56.564 88.5443 50.5565 90.3409 44.1273 90.8457C42.7192 90.9264 41.3078 90.9308 39.8992 90.8596C39.2906 90.8476 38.6878 90.7401 38.1125 90.5418C35.8072 89.7058 35.4568 87.9963 37.2851 86.3892C39.0798 84.8113 41.0167 83.3898 42.7455 81.7464C44.0704 80.4768 45.2702 79.0827 46.3284 77.5836C47.4489 76.0057 47.5475 74.185 46.8529 72.0871C45.7457 72.6027 44.6853 73.0133 43.7106 73.5721C41.667 74.7444 40.5142 74.6955 38.761 73.1557C37.0576 71.6586 35.3836 70.1284 33.6889 68.6217C33.4368 68.4246 33.1733 68.2428 32.8998 68.0769C31.8717 69.0279 30.9162 69.9758 29.8919 70.8429C28.5344 71.9911 27.188 72.0216 26.3071 71.0044C25.4815 70.0527 25.6174 68.794 26.8103 67.5708C27.6569 66.7018 28.6242 65.9503 29.339 65.3203C27.4169 62.9725 25.4797 61.0476 24.0868 58.7892C22.4592 56.1482 24.4708 53.794 25.7277 51.21C23.3283 51.0594 21.355 51.4992 19.7689 52.7166C18.2553 53.9448 16.8903 55.3458 15.7017 56.8911C14.5503 58.3129 13.6548 59.9414 12.6326 61.4693C11.669 62.9099 10.6818 64.4239 8.65297 64.2148C7.24838 64.0698 5.28983 61.5378 5.1599 59.6345C4.86544 55.2958 5.41755 51.0734 7.44197 47.1512C11.1507 39.9684 16.9933 35.2978 24.6044 32.7989C27.7934 31.7521 31.006 32.0855 34.2587 33.077C34.4391 32.8693 34.6507 32.6623 34.82 32.4255C43.6039 20.1407 55.5741 12.3428 69.7507 7.71189C74.5786 6.135 79.4632 4.69954 84.6097 4.56804C85.8952 4.53526 87.1813 4.43689 88.4662 4.45163C90.1421 4.47041 90.9781 5.06531 90.9101 6.70336C90.823 9.87332 90.5267 13.034 90.0226 16.1647C87.9538 27.9383 82.2962 38.0357 74.9474 47.2452C72.0871 50.8299 68.8663 54.1277 65.8058 57.553C65.444 57.9567 65.0594 58.3405 64.5972 58.8271ZM36.0008 64.2917C37.9148 65.8137 39.3088 67.0076 40.8072 68.0489C41.0619 68.169 41.3401 68.2301 41.6216 68.2288C41.903 68.2275 42.1807 68.1633 42.4341 68.0406C44.8094 66.7806 47.2383 65.5753 49.4493 64.0597C57.3244 58.6629 64.4491 52.3924 70.4373 44.9327C73.6867 40.8857 76.6601 36.6172 79.8186 32.3665L61.5139 15.3555C60.9096 15.6383 60.321 15.9532 59.7504 16.2988C56.18 18.6699 52.5401 20.9477 49.0923 23.4863C45.2275 26.3315 41.9571 29.8083 39.0375 33.6406C34.1954 39.9957 31.3446 47.4168 27.7618 54.4449C27.4055 55.1447 27.6053 56.5544 28.1103 57.1803C29.4248 58.8095 31.0524 60.186 32.8185 61.922C35.579 59.0585 38.0084 56.3824 40.6158 53.8898C42.118 52.5402 43.7286 51.3166 45.4314 50.2314C46.3265 49.6229 47.4695 49.4155 48.2884 50.35C49.1184 51.2974 48.4036 52.2252 47.8202 52.9866C47.1306 53.8467 46.3834 54.6589 45.5838 55.4177C43.9274 57.0561 42.2674 58.6898 40.561 60.2744C39.1295 61.6059 37.63 62.8624 36.0008 64.2917ZM87.4407 8.03567C79.6082 8.0515 72.6955 10.9655 65.6475 13.3369L65.5216 13.825L81.7322 27.501C84.5099 23.0956 86.6403 15.8325 87.4407 8.03567ZM48.6495 83.941C55.2448 82.6975 60.3544 79.3497 63.2254 73.2149C65.1395 69.1201 63.8025 65.2987 61.5466 61.6656C57.7491 64.567 54.1169 67.342 50.4855 70.1169C53.3458 75.1685 51.8809 79.6173 48.6495 83.941ZM32.2332 36.1557C22.8037 34.6086 9.76898 47.3682 10.6145 56.1279C14.4649 50.0428 19.406 46.3766 26.8416 47.6956L32.2332 36.1557Z" fill="#F5F9F5"/>
<path id="Vector_2" d="M14.1676 82.2963C14.439 81.8055 14.7304 80.9123 15.3117 80.2912C17.5041 77.9504 19.7769 75.684 22.0511 73.4221C22.719 72.7578 23.5639 72.3388 24.433 73.0477C25.3497 73.7959 24.9486 74.6898 24.407 75.4298C22.5478 77.9682 20.6843 80.5067 18.7197 82.9619C18.1354 83.6333 17.3925 84.1482 16.5588 84.4597C15.321 84.9473 14.1244 83.9658 14.1676 82.2963Z" fill="#F5F9F5"/>
<path id="Vector_3" d="M34.5309 73.1952C35.8492 73.2308 36.8074 74.4196 36.221 75.3401C34.7276 77.6574 33.0871 79.8761 31.3096 81.9835C30.6728 82.7458 29.5295 82.6377 28.7207 81.9085C28.351 81.5951 28.1091 81.1577 28.041 80.6777C27.9729 80.1984 28.0833 79.7102 28.3514 79.3065C28.8366 78.4984 29.4136 77.7496 30.0708 77.0738C31.0443 76.0375 32.073 75.0483 33.1305 74.0985C33.5681 73.754 34.037 73.452 34.5309 73.1952Z" fill="#F5F9F5"/>
<path id="Vector_4" d="M22.7545 63.1389C22.5028 63.6948 22.2056 64.2294 21.8657 64.7361C20.2056 66.8079 18.5199 68.8595 16.8088 70.89C16.4873 71.2358 16.1132 71.5295 15.7004 71.759C14.846 72.2848 13.9772 72.2835 13.2882 71.506C12.5764 70.7018 12.7344 69.8099 13.448 69.1188C15.7841 66.8544 18.1471 64.6166 20.5568 62.4311C20.8718 62.145 21.5425 62.0985 22.0034 62.1836C22.2801 62.2347 22.4703 62.7557 22.7545 63.1389Z" fill="#F5F9F5"/>
<path id="Vector_5" d="M60.3949 25.186C62.7167 25.1541 64.5063 26.1037 66.3029 27.5999C68.1651 29.1508 69.5568 30.805 70.244 33.1171C71.8309 38.4647 68.6915 42.4013 63.5997 43.1213C59.4731 43.7048 55.9729 42.0056 53.4269 38.7754C51.246 36.0076 51.187 32.7867 52.6997 29.6917C54.2249 26.5688 56.9726 25.2192 60.3949 25.186ZM55.4942 33.7538C56.0906 34.7827 56.5185 36.0945 57.407 36.8963C58.3272 37.7268 59.6655 38.1383 60.8725 38.5973C62.4585 39.2008 63.8311 38.5616 64.9087 37.4397C65.9514 36.3547 65.9901 34.9918 65.4809 33.6037C64.6779 31.415 62.8046 30.3167 60.9236 29.3259C59.2347 28.4365 57.6319 28.9685 56.6691 30.6341C56.1781 31.4818 55.9587 32.4864 55.4942 33.7538Z" fill="#F5F9F5"/>
</g>
</svg>
